<?xml version="1.0" encoding="UTF-8"?>
<svg id="Layer_2" data-name="Layer 2" xmlns="http://www.w3.org/2000/svg" viewBox="0 0 120 120">
  <defs>
    <style>
      .cls-1 {
        fill: #1a1a1a;
      }

      .cls-1, .cls-2 {
        stroke-width: 0px;
      }

      .cls-2 {
        fill: #fff;
      }
    </style>
  </defs>
  <g id="Surface">
    <g id="Link-List-Icon-PC">
      <g id="Bounding_Box" data-name="Bounding Box">
        <rect class="cls-2" width="120" height="120"/>
      </g>
      <path class="cls-1" d="M100.28,14.82H19.72c-4.11,0-7.45,3.34-7.45,7.45v55.58c0,4.11,3.34,7.45,7.45,7.45h24.72v15.88h-10.5c-1.1,0-2,.9-2,2s.9,2,2,2h52.14c1.1,0,2-.9,2-2s-.9-2-2-2h-10.5v-15.88h24.72c4.11,0,7.45-3.34,7.45-7.45V22.28c0-4.11-3.34-7.45-7.45-7.45ZM71.57,101.18h-23.13v-15.88h23.13v15.88ZM103.73,77.85c0,1.9-1.55,3.45-3.45,3.45H19.72c-1.9,0-3.45-1.55-3.45-3.45V22.28c0-1.9,1.55-3.45,3.45-3.45h80.57c1.9,0,3.45,1.55,3.45,3.45v55.58Z"/>
    </g>
  </g>
</svg>